<svg xmlns="http://www.w3.org/2000/svg" width="1200" height="630" viewBox="0 0 1200 630" role="img" aria-labelledby="title desc">
    <title id="title">ZAREX Studio</title>
    <desc id="desc">AI, web products, data platforms, and intelligent applications.</desc>
    <defs>
        <linearGradient id="bg" x1="0" x2="1" y1="0" y2="1">
            <stop offset="0" stop-color="#f6f8fb"/>
            <stop offset="1" stop-color="#dbeafe"/>
        </linearGradient>
        <linearGradient id="accent" x1="0" x2="1" y1="0" y2="1">
            <stop offset="0" stop-color="#2563eb"/>
            <stop offset="1" stop-color="#0f9f8f"/>
        </linearGradient>
    </defs>
    <rect width="1200" height="630" fill="url(#bg)"/>
    <path d="M810 0h390v390L940 630H650L810 0Z" fill="#ffffff" opacity=".68"/>
    <path d="M0 520c180-88 351-116 514-84 169 34 308 19 416-44 87-51 176-65 270-42v280H0Z" fill="#111827" opacity=".06"/>
    <g fill="none" stroke="#111827" stroke-opacity=".1">
        <path d="M82 98h1036"/>
        <path d="M82 194h1036"/>
        <path d="M82 290h1036"/>
        <path d="M82 386h1036"/>
        <path d="M82 482h1036"/>
        <path d="M162 54v522"/>
        <path d="M330 54v522"/>
        <path d="M498 54v522"/>
        <path d="M666 54v522"/>
        <path d="M834 54v522"/>
        <path d="M1002 54v522"/>
    </g>
    <g transform="translate(88 118)">
        <rect x="0" y="0" width="180" height="48" rx="24" fill="#111827"/>
        <text x="90" y="31" text-anchor="middle" font-family="Inter, Arial, sans-serif" font-size="18" font-weight="700" fill="#ffffff">ZAREX Studio</text>
        <text x="0" y="155" font-family="Inter, Arial, sans-serif" font-size="76" font-weight="800" fill="#111827">AI, Web Products</text>
        <text x="0" y="242" font-family="Inter, Arial, sans-serif" font-size="76" font-weight="800" fill="#111827">and Intelligent Apps</text>
        <rect x="0" y="294" width="690" height="8" rx="4" fill="url(#accent)"/>
        <text x="0" y="365" font-family="Inter, Arial, sans-serif" font-size="30" fill="#344054">AI implementation · Data platforms · Automation tools</text>
    </g>
    <g transform="translate(888 120)">
        <circle cx="120" cy="120" r="118" fill="url(#accent)" opacity=".12"/>
        <circle cx="120" cy="120" r="74" fill="none" stroke="url(#accent)" stroke-width="18"/>
        <path d="M120 28v184M28 120h184" stroke="#2563eb" stroke-width="18" stroke-linecap="round"/>
    </g>
</svg>
