<svg xmlns="http://www.w3.org/2000/svg" width="1200" height="630" viewBox="0 0 1200 630" role="img" aria-labelledby="title desc">
  <title id="title">ZAREX Studio</title>
  <desc id="desc">Building AI, data, and web product systems from the point of origin.</desc>
  <defs>
    <linearGradient id="night" x1="0" x2="1" y1="0" y2="1">
      <stop offset="0" stop-color="#080a0d"/>
      <stop offset="0.58" stop-color="#0b1220"/>
      <stop offset="1" stop-color="#102a43"/>
    </linearGradient>
    <linearGradient id="trace" x1="0" x2="1" y1="0" y2="0">
      <stop offset="0" stop-color="#19d9ff"/>
      <stop offset="0.58" stop-color="#2563eb"/>
      <stop offset="1" stop-color="#ff4d2e"/>
    </linearGradient>
    <pattern id="grid" width="42" height="42" patternUnits="userSpaceOnUse">
      <path d="M42 0H0V42" fill="none" stroke="#f5f7fa" stroke-opacity="0.1" stroke-width="1"/>
    </pattern>
  </defs>
  <rect width="1200" height="630" fill="url(#night)"/>
  <rect width="1200" height="630" fill="url(#grid)"/>
  <path d="M828 0h372v384L940 630H652L828 0Z" fill="#f5f7fa" opacity="0.05"/>
  <path d="M780 80H1098L830 314H1134" fill="none" stroke="url(#trace)" stroke-width="18" stroke-linecap="round" stroke-linejoin="round"/>
  <g fill="#19d9ff">
    <circle cx="780" cy="80" r="14"/>
    <circle cx="1098" cy="80" r="10"/>
    <circle cx="830" cy="314" r="10"/>
  </g>
  <circle cx="1134" cy="314" r="16" fill="#ff4d2e"/>
  <g transform="translate(88 112)">
    <g>
      <rect width="242" height="58" rx="8" fill="#f5f7fa" fill-opacity="0.08" stroke="#f5f7fa" stroke-opacity="0.16"/>
      <path d="M24 18h36L24 40h36" fill="none" stroke="url(#trace)" stroke-width="4" stroke-linecap="round" stroke-linejoin="round"/>
      <circle cx="24" cy="18" r="3.5" fill="#19d9ff"/>
      <circle cx="60" cy="40" r="4" fill="#ff4d2e"/>
      <text x="78" y="37" font-family="'Exo 2', Inter, Arial, sans-serif" font-size="22" font-weight="800" fill="#f5f7fa">ZAREX <tspan fill="#19d9ff">Studio</tspan></text>
    </g>
    <text x="0" y="176" font-family="'Exo 2', Inter, Arial, sans-serif" font-size="82" font-weight="850" fill="#f5f7fa">AI, Data, and</text>
    <text x="0" y="268" font-family="'Exo 2', Inter, Arial, sans-serif" font-size="82" font-weight="850" fill="#f5f7fa">Web Product Systems</text>
    <rect x="0" y="318" width="654" height="7" rx="3.5" fill="url(#trace)"/>
    <text x="0" y="386" font-family="Inter, Arial, sans-serif" font-size="29" fill="#c8d0da">From the point of origin to usable systems.</text>
  </g>
</svg>
